<?xml version="1.0" encoding="UTF-8"?>
<!DOCTYPE svg PUBLIC "-//W3C//DTD SVG 1.1//EN" "http://www.w3.org/Graphics/SVG/1.1/DTD/svg11.dtd">
<svg xmlns="http://www.w3.org/2000/svg" version="1.1" width="517px" height="507px" style="shape-rendering:geometricPrecision; text-rendering:geometricPrecision; image-rendering:optimizeQuality; fill-rule:evenodd; clip-rule:evenodd" xmlns:xlink="http://www.w3.org/1999/xlink">
<g><path style="opacity:1" fill="#f7f7f7" d="M 245.5,-0.5 C 256.833,-0.5 268.167,-0.5 279.5,-0.5C 284.698,0.258781 290.031,0.925447 295.5,1.5C 295.62,2.58617 296.287,3.25284 297.5,3.5C 298.713,3.25284 299.38,2.58617 299.5,1.5C 300.458,1.9528 301.292,2.61947 302,3.5C 302.893,2.91858 303.893,2.58524 305,2.5C 321.633,5.32142 337.8,9.65476 353.5,15.5C 353.821,17.0481 354.821,17.7148 356.5,17.5C 364.55,20.0267 372.216,23.36 379.5,27.5C 379.821,29.0481 380.821,29.7148 382.5,29.5C 385.269,30.4373 387.936,31.6039 390.5,33C 392.613,36.2791 395.613,38.1125 399.5,38.5C 399.5,39.5 399.5,40.5 399.5,41.5C 400.5,41.5 401.5,41.5 402.5,41.5C 407.851,45.1728 413.185,48.8395 418.5,52.5C 418.5,54.5 419.5,55.5 421.5,55.5C 424.525,56.8236 426.858,58.8236 428.5,61.5C 428.5,62.8333 429.167,63.5 430.5,63.5C 431.048,65.5323 432.381,66.5323 434.5,66.5C 435.167,66.5 435.5,66.8333 435.5,67.5C 435.5,68.8333 435.5,70.1667 435.5,71.5C 436.833,71.5 438.167,71.5 439.5,71.5C 448.431,79.3911 456.097,88.3911 462.5,98.5C 462.5,99.8333 463.167,100.5 464.5,100.5C 465.922,102.512 467.255,104.512 468.5,106.5C 469.014,108.698 470.014,110.698 471.5,112.5C 471.957,113.298 472.624,113.631 473.5,113.5C 479.269,122.108 484.603,131.108 489.5,140.5C 488.115,141.947 488.448,142.947 490.5,143.5C 493.989,149.479 496.656,155.813 498.5,162.5C 498.031,165.393 499.031,167.393 501.5,168.5C 504.799,181.702 507.799,195.035 510.5,208.5C 510.352,213.201 510.685,217.868 511.5,222.5C 511.64,224.03 512.307,225.03 513.5,225.5C 514.234,226.708 514.567,228.041 514.5,229.5C 513.504,243.99 513.171,258.657 513.5,273.5C 513.5,274.167 513.5,274.833 513.5,275.5C 512.275,276.152 511.608,277.319 511.5,279C 511.514,280.385 511.848,281.551 512.5,282.5C 512.57,286.425 511.903,290.091 510.5,293.5C 508.612,295.988 507.945,298.988 508.5,302.5C 506.627,312.953 504.294,323.286 501.5,333.5C 499.922,334.066 498.588,335.066 497.5,336.5C 497.855,337.522 498.522,338.189 499.5,338.5C 496.891,345.323 493.891,351.989 490.5,358.5C 488.824,359.183 488.157,360.517 488.5,362.5C 486.61,367.77 484.277,372.77 481.5,377.5C 480.167,377.5 479.5,378.167 479.5,379.5C 478.098,381.875 476.765,384.209 475.5,386.5C 474.833,386.5 474.167,386.5 473.5,386.5C 471.518,388.597 470.518,391.264 470.5,394.5C 469.886,396.723 468.552,398.389 466.5,399.5C 465.571,400.689 465.238,402.022 465.5,403.5C 464.5,403.5 463.5,403.5 462.5,403.5C 462.509,405.308 462.009,406.975 461,408.5C 456.564,413.617 452.064,418.617 447.5,423.5C 446.167,423.5 445.5,424.167 445.5,425.5C 444.833,425.5 444.5,425.833 444.5,426.5C 443.167,426.5 442.5,427.167 442.5,428.5C 439.627,431.111 436.961,433.944 434.5,437C 432.473,438.879 430.14,440.046 427.5,440.5C 427.719,441.675 427.386,442.675 426.5,443.5C 423.135,446.206 419.802,448.873 416.5,451.5C 415.325,451.281 414.325,451.614 413.5,452.5C 413.624,453.107 413.957,453.44 414.5,453.5C 410.962,456.015 407.295,458.349 403.5,460.5C 402.167,460.5 400.833,460.5 399.5,460.5C 399.5,461.5 399.5,462.5 399.5,463.5C 388.664,469.808 377.664,475.975 366.5,482C 357.635,484.638 349.135,488.138 341,492.5C 340.586,492.043 340.086,491.709 339.5,491.5C 333.555,494.532 327.222,496.199 320.5,496.5C 316.905,497.984 313.238,499.317 309.5,500.5C 308.393,499.978 307.226,499.645 306,499.5C 299.909,501.087 293.742,502.253 287.5,503C 264.563,505.742 241.896,504.576 219.5,499.5C 218.106,499.621 216.772,499.954 215.5,500.5C 212.167,499.167 208.833,497.833 205.5,496.5C 197.575,495.716 189.908,494.049 182.5,491.5C 182.611,490.883 182.944,490.383 183.5,490C 182.207,489.51 180.873,489.343 179.5,489.5C 169.671,485.748 160.005,481.748 150.5,477.5C 149.393,475.031 147.393,474.031 144.5,474.5C 132.354,468.341 121.021,461.008 110.5,452.5C 110.5,451.5 110.5,450.5 110.5,449.5C 109.5,449.5 108.5,449.5 107.5,449.5C 106.833,449.5 106.167,449.5 105.5,449.5C 105.715,447.821 105.048,446.821 103.5,446.5C 93.6171,440.122 84.7838,432.456 77,423.5C 69.4139,414.634 62.0805,405.634 55,396.5C 51.8101,390.781 48.6434,385.114 45.5,379.5C 45.5,377.5 44.5,376.5 42.5,376.5C 41.2271,374.287 40.2271,371.954 39.5,369.5C 40.1253,365.073 38.4587,362.073 34.5,360.5C 31.867,354.651 29.5336,348.651 27.5,342.5C 27.9227,340.219 27.256,338.552 25.5,337.5C 25.7409,334.966 24.7409,333.3 22.5,332.5C 22.5,331.5 22.5,330.5 22.5,329.5C 22.9227,327.219 22.256,325.552 20.5,324.5C 18.5199,313.834 15.8532,303.334 12.5,293C 13.3366,291.989 13.67,290.822 13.5,289.5C 14.0803,285.351 13.4136,281.684 11.5,278.5C 10.6864,273.881 10.3531,269.214 10.5,264.5C 10.5,259.5 10.5,254.5 10.5,249.5C 10.5,244.5 10.5,239.5 10.5,234.5C 10.4372,229.797 10.7705,225.13 11.5,220.5C 12.6935,220.03 13.3601,219.03 13.5,217.5C 13.4805,216.274 13.1471,215.274 12.5,214.5C 12.6065,210.26 13.2731,205.926 14.5,201.5C 16.256,200.448 16.9227,198.781 16.5,196.5C 16.9202,194.326 16.9202,192.326 16.5,190.5C 18.5925,185.705 19.9258,180.705 20.5,175.5C 21.1174,175.611 21.6174,175.944 22,176.5C 22.4935,174.866 22.6602,173.199 22.5,171.5C 31.0849,144.322 44.4182,119.988 62.5,98.5C 64.8136,96.1703 66.8136,93.5037 68.5,90.5C 69.5,89.1667 70.5,87.8333 71.5,86.5C 74.5,86.1667 76.1667,84.5 76.5,81.5C 77.861,79.4008 79.361,77.4008 81,75.5C 82.129,73.8588 83.629,72.8588 85.5,72.5C 86.9778,72.762 88.3112,72.4287 89.5,71.5C 96.1813,65.7972 102.181,59.4638 107.5,52.5C 112.147,48.839 116.813,45.1724 121.5,41.5C 129.338,37.7513 136.671,33.2513 143.5,28C 150.393,24.9603 157.393,22.2936 164.5,20C 167.388,18.1874 170.388,16.5208 173.5,15C 188.97,9.62423 204.803,5.45757 221,2.5C 222,2.83333 223,3.16667 224,3.5C 225.52,2.49325 227.187,1.82659 229,1.5C 234.669,1.0063 240.169,0.339632 245.5,-0.5 Z M 266.5,76.5 C 266.833,77.5 267.5,78.1667 268.5,78.5C 277.267,84.6514 281.434,92.9847 281,103.5C 280.144,105.868 279.31,108.202 278.5,110.5C 270.076,108.972 261.743,106.805 253.5,104C 248.55,103.738 243.717,103.571 239,103.5C 238.925,105.935 238.092,106.602 236.5,105.5C 237.484,103.52 238.817,101.853 240.5,100.5C 241.048,97.9748 242.048,95.6415 243.5,93.5C 239.679,87.359 235.179,81.6923 230,76.5C 229.07,74.0639 227.903,71.7305 226.5,69.5C 226.833,68.8333 227.167,68.1667 227.5,67.5C 229.686,66.7792 231.853,66.1125 234,65.5C 245.572,67.1092 256.405,70.7759 266.5,76.5 Z M 272.5,147.5 C 271.833,147.5 271.167,147.5 270.5,147.5C 268.5,148.167 266.5,148.833 264.5,149.5C 262.406,147.006 260.406,147.006 258.5,149.5C 256.139,149.674 253.806,150.007 251.5,150.5C 250.167,150.5 249.5,151.167 249.5,152.5C 248.167,152.5 246.833,152.5 245.5,152.5C 242.911,152.461 240.911,153.461 239.5,155.5C 234.513,155.83 230.847,158.163 228.5,162.5C 227.5,162.833 226.833,163.5 226.5,164.5C 223.791,166.903 221.791,169.903 220.5,173.5C 220.5,174.833 220.5,176.167 220.5,177.5C 219.883,177.611 219.383,177.944 219,178.5C 218.503,180.81 218.337,183.143 218.5,185.5C 220.167,185.5 221.833,185.5 223.5,185.5C 225.455,185.201 226.789,184.201 227.5,182.5C 228.609,182.443 229.609,182.11 230.5,181.5C 233.577,181.273 236.41,180.273 239,178.5C 239.765,178.57 240.265,178.903 240.5,179.5C 238.086,180.911 236.419,182.911 235.5,185.5C 235.167,186.167 234.833,186.833 234.5,187.5C 232.5,188.833 230.833,190.5 229.5,192.5C 228.357,192.908 227.357,193.575 226.5,194.5C 224.713,197.79 222.713,200.957 220.5,204C 220.239,206.073 220.239,208.073 220.5,210C 219.552,210.483 218.552,210.649 217.5,210.5C 215.577,212.201 215.243,214.201 216.5,216.5C 218.727,217.053 221.061,217.053 223.5,216.5C 224.167,216.167 224.833,215.833 225.5,215.5C 229.122,215.678 232.456,215.011 235.5,213.5C 237.483,213.843 238.817,213.176 239.5,211.5C 244.009,209.413 248.343,207.08 252.5,204.5C 253.872,203.488 255.205,202.488 256.5,201.5C 262.26,197.304 267.593,192.637 272.5,187.5C 275.243,185.761 277.243,183.427 278.5,180.5C 280.167,179.5 281.5,178.167 282.5,176.5C 283.338,176.158 283.672,175.492 283.5,174.5C 283.833,173.833 284.167,173.167 284.5,172.5C 286.714,169.238 288.381,165.571 289.5,161.5C 287.099,160.951 284.765,160.118 282.5,159C 286.669,155.153 291.502,152.653 297,151.5C 299.553,152.108 302.053,152.775 304.5,153.5C 304.973,154.906 305.973,155.573 307.5,155.5C 309.117,156.038 310.784,156.371 312.5,156.5C 312.5,158.5 313.5,159.5 315.5,159.5C 317.396,161.043 319.229,162.709 321,164.5C 321.841,167.51 322.674,170.51 323.5,173.5C 323.167,174.5 322.833,175.5 322.5,176.5C 315.823,181.847 309.49,187.514 303.5,193.5C 301.947,195.385 299.947,196.385 297.5,196.5C 296.735,201.906 299.069,203.906 304.5,202.5C 306.379,201.659 308.379,201.325 310.5,201.5C 313.059,201.802 315.393,201.468 317.5,200.5C 330.935,199.388 344.269,199.055 357.5,199.5C 359.467,199.261 361.301,199.594 363,200.5C 369.599,199.85 376.099,199.184 382.5,198.5C 384.937,198.244 387.271,197.577 389.5,196.5C 392.4,197.443 394.733,199.11 396.5,201.5C 398.854,202.06 401.187,202.727 403.5,203.5C 407.869,206.685 412.536,209.351 417.5,211.5C 422.604,215.389 425.937,220.389 427.5,226.5C 427.43,227.772 427.097,228.938 426.5,230C 424.058,230.946 422.058,232.446 420.5,234.5C 415.88,235.493 411.214,235.827 406.5,235.5C 404.802,233.133 402.469,231.466 399.5,230.5C 392.066,228.029 384.4,227.029 376.5,227.5C 373.833,227.5 371.167,227.5 368.5,227.5C 367.952,225.468 366.619,224.468 364.5,224.5C 360.628,224.242 356.961,224.909 353.5,226.5C 349.153,226.777 344.653,227.444 340,228.5C 337.974,228.085 336.474,227.085 335.5,225.5C 336.167,225.5 336.5,225.167 336.5,224.5C 339.628,223.844 342.295,222.344 344.5,220C 343.956,219.283 343.289,218.783 342.5,218.5C 342.5,217.167 341.833,216.5 340.5,216.5C 323.906,217.647 307.239,218.647 290.5,219.5C 289.5,219.5 288.5,219.5 287.5,219.5C 287.67,218.178 287.337,217.011 286.5,216C 283.779,215.398 281.113,215.565 278.5,216.5C 277.549,217.919 277.216,219.585 277.5,221.5C 275.585,221.784 273.919,221.451 272.5,220.5C 271.486,219.235 269.986,218.569 268,218.5C 266.293,218.508 264.793,218.842 263.5,219.5C 263.5,219.833 263.5,220.167 263.5,220.5C 261.099,218.938 259.099,219.271 257.5,221.5C 256.107,223.705 254.441,225.705 252.5,227.5C 253.979,225.088 253.479,223.088 251,221.5C 249.23,223.686 247.73,226.02 246.5,228.5C 243.398,228.154 240.565,228.821 238,230.5C 237.259,229.359 236.425,229.359 235.5,230.5C 234.702,230.043 234.369,229.376 234.5,228.5C 234.516,226.516 233.516,225.516 231.5,225.5C 229.962,225.453 228.962,226.12 228.5,227.5C 226.903,228.737 225.737,230.404 225,232.5C 222.418,231.688 220.251,232.521 218.5,235C 214.833,235.333 211.167,235.667 207.5,236C 205.217,239.075 202.383,239.908 199,238.5C 195.43,240.911 191.597,242.744 187.5,244C 180.902,244.899 174.568,246.565 168.5,249C 156.779,254.255 145.446,260.088 134.5,266.5C 129.167,267.833 123.833,267.833 118.5,266.5C 109.237,263.911 100.403,260.244 92,255.5C 90.1667,253 88.3333,250.5 86.5,248C 87.3081,247.692 87.9747,247.192 88.5,246.5C 97.4879,245.601 106.488,244.934 115.5,244.5C 116.959,244.567 118.292,244.234 119.5,243.5C 123.066,242.756 126.399,241.422 129.5,239.5C 133.307,239.969 136.973,239.135 140.5,237C 153.06,233.327 165.727,230.16 178.5,227.5C 180.698,227.88 182.365,227.213 183.5,225.5C 191.943,223.625 200.277,221.291 208.5,218.5C 208.833,217.833 209.167,217.167 209.5,216.5C 206.317,214.151 203.651,211.318 201.5,208C 199.055,202.441 197.888,196.607 198,190.5C 204.453,179.521 212.287,169.854 221.5,161.5C 222.5,161.5 223.5,161.5 224.5,161.5C 224.5,159.5 224.5,157.5 224.5,155.5C 221.941,155.198 219.607,155.532 217.5,156.5C 209.088,155.626 200.755,155.293 192.5,155.5C 190.383,153.345 187.716,152.345 184.5,152.5C 182.5,151.5 180.5,150.5 178.5,149.5C 178.167,148.5 177.5,147.833 176.5,147.5C 174.146,146.987 172.146,145.821 170.5,144C 173.002,141.788 176.002,140.955 179.5,141.5C 184.363,141.819 189.03,141.486 193.5,140.5C 202.285,139.41 210.618,137.743 218.5,135.5C 219.167,135.5 219.833,135.5 220.5,135.5C 221.71,135.068 222.71,134.401 223.5,133.5C 226.127,132.908 228.794,132.575 231.5,132.5C 243.557,128.13 255.557,123.796 267.5,119.5C 271.733,119.543 275.4,118.21 278.5,115.5C 280.527,115.662 282.527,115.495 284.5,115C 290.758,111.18 297.425,108.014 304.5,105.5C 308.98,107.138 313.647,107.971 318.5,108C 321.139,109.946 324.139,110.946 327.5,111C 330.036,112.747 332.536,114.58 335,116.5C 335.667,119.5 335.667,122.5 335,125.5C 333.097,127.441 332.264,129.774 332.5,132.5C 322.715,132.685 313.048,133.852 303.5,136C 293.012,139.55 282.679,143.383 272.5,147.5 Z M 313.5,257.5 C 313.833,258.5 314.5,259.167 315.5,259.5C 318.908,260.367 322.242,261.533 325.5,263C 328.289,266.758 331.623,269.924 335.5,272.5C 337.091,276.36 338.758,280.193 340.5,284C 340.211,286.105 339.378,287.938 338,289.5C 337.174,301.341 337.341,313.007 338.5,324.5C 338.5,325.5 338.5,326.5 338.5,327.5C 337.793,330.786 337.46,334.119 337.5,337.5C 338.413,343.441 338.746,349.441 338.5,355.5C 338.32,367.178 336.987,378.678 334.5,390C 333.402,393.932 331.235,397.099 328,399.5C 327.229,402.19 326.396,404.856 325.5,407.5C 322.35,407.766 319.683,408.766 317.5,410.5C 315.326,410.75 313.659,411.75 312.5,413.5C 311.833,413.5 311.167,413.5 310.5,413.5C 310.027,412.094 309.027,411.427 307.5,411.5C 302.828,407.826 298.828,403.493 295.5,398.5C 292.437,397.271 290.104,395.104 288.5,392C 286.833,391.833 285.167,391.667 283.5,391.5C 276.506,393.164 269.506,394.498 262.5,395.5C 256.261,396.624 249.928,397.291 243.5,397.5C 240.833,397.5 238.167,397.5 235.5,397.5C 231.821,397.637 228.321,396.971 225,395.5C 224.705,393.069 223.538,391.236 221.5,390C 220.824,387.661 220.824,385.161 221.5,382.5C 223.544,381.478 225.544,380.478 227.5,379.5C 230.579,380.372 233.579,380.372 236.5,379.5C 242.462,379.878 248.129,378.878 253.5,376.5C 257.745,375.123 262.079,373.956 266.5,373C 267.981,372.02 269.315,370.853 270.5,369.5C 273.505,371.894 276.339,371.894 279,369.5C 279.986,370.171 281.153,370.171 282.5,369.5C 286.167,370.167 289.833,370.833 293.5,371.5C 295.167,371.5 296.833,371.5 298.5,371.5C 300.422,363.632 301.589,355.632 302,347.5C 304.773,342.759 305.273,337.759 303.5,332.5C 303.736,329.391 303.403,326.391 302.5,323.5C 301.813,313.07 300.98,302.404 300,291.5C 298.224,288.331 298.057,284.998 299.5,281.5C 299.382,269.219 293.382,264.719 281.5,268C 274.451,270.863 267.451,273.696 260.5,276.5C 251.853,280.871 242.853,282.204 233.5,280.5C 235.836,278.996 237.669,276.996 239,274.5C 239.333,274.833 239.667,275.167 240,275.5C 241.491,273.996 243.324,273.163 245.5,273C 256.358,265.811 267.691,260.311 279.5,256.5C 281.38,256.771 282.713,256.104 283.5,254.5C 286.995,253.889 290.328,252.889 293.5,251.5C 300.18,253.501 306.847,255.501 313.5,257.5 Z M 215.5,268.5 C 215.5,270.167 215.5,271.833 215.5,273.5C 214.876,275.834 214.043,278.167 213,280.5C 212.661,287.565 211.828,294.565 210.5,301.5C 209.28,301.887 208.613,302.72 208.5,304C 209.322,306.434 209.656,308.934 209.5,311.5C 211.167,311.5 212.833,311.5 214.5,311.5C 214.461,308.911 215.461,306.911 217.5,305.5C 216.181,309.744 215.181,314.078 214.5,318.5C 213.007,321.113 213.674,323.113 216.5,324.5C 213.41,326.843 211.744,330.01 211.5,334C 211.899,342.741 211.899,351.575 211.5,360.5C 212.518,364.523 213.518,368.523 214.5,372.5C 214.637,374.841 213.97,376.841 212.5,378.5C 212.932,379.71 213.599,380.71 214.5,381.5C 213.045,383.134 211.378,384.468 209.5,385.5C 207.517,385.157 206.183,385.824 205.5,387.5C 202.812,387.834 200.479,387.168 198.5,385.5C 196.525,383.863 194.525,382.196 192.5,380.5C 188.841,372.301 185.841,363.801 183.5,355C 183.667,353.5 183.833,352 184,350.5C 185.397,349.774 186.231,348.607 186.5,347C 187.271,339.79 188.271,332.623 189.5,325.5C 190.117,325.389 190.617,325.056 191,324.5C 191.311,322.444 191.811,320.444 192.5,318.5C 192.291,317.914 191.957,317.414 191.5,317C 193.83,312.857 195.163,308.357 195.5,303.5C 198.037,298.718 199.871,293.718 201,288.5C 204.759,282.926 208.259,277.26 211.5,271.5C 212.833,270.5 214.167,269.5 215.5,268.5 Z M 263.5,305.5 C 268.222,307.085 273.222,308.418 278.5,309.5C 278.918,310.222 279.584,310.722 280.5,311C 277.842,314.362 278.842,316.362 283.5,317C 282.253,318.458 282.253,319.958 283.5,321.5C 278.843,325.931 274.01,330.265 269,334.5C 267.562,335.9 266.729,337.567 266.5,339.5C 264.473,339.338 262.473,339.505 260.5,340C 259.944,340.383 259.611,340.883 259.5,341.5C 257.833,342.5 256.5,343.833 255.5,345.5C 254.833,345.5 254.167,345.5 253.5,345.5C 253.5,345.167 253.5,344.833 253.5,344.5C 254.301,342.958 254.634,341.292 254.5,339.5C 252.833,339.5 251.167,339.5 249.5,339.5C 249.5,340.5 249.5,341.5 249.5,342.5C 248.5,342.5 247.5,342.5 246.5,342.5C 246.5,343.5 246.5,344.5 246.5,345.5C 245.5,345.5 244.5,345.5 243.5,345.5C 245.115,340.726 247.115,336.06 249.5,331.5C 249.043,330.702 248.376,330.369 247.5,330.5C 245.962,327.952 244.296,327.952 242.5,330.5C 240.5,330.833 238.5,331.167 236.5,331.5C 233.482,331.296 230.482,330.963 227.5,330.5C 225.887,328.912 223.887,327.912 221.5,327.5C 220.728,326.306 219.728,325.306 218.5,324.5C 218.5,323.167 218.5,321.833 218.5,320.5C 221.877,320.932 224.877,320.265 227.5,318.5C 230.067,317.525 232.733,316.858 235.5,316.5C 237.027,316.573 238.027,315.906 238.5,314.5C 238.833,314.5 239.167,314.5 239.5,314.5C 244.478,313.068 249.145,311.068 253.5,308.5C 256.329,306.022 259.662,305.022 263.5,305.5 Z"/></g>
<g><path style="opacity:0.086" fill="#737373" d="M 295.5,1.5 C 296.833,1.5 298.167,1.5 299.5,1.5C 299.38,2.58617 298.713,3.25284 297.5,3.5C 296.287,3.25284 295.62,2.58617 295.5,1.5 Z"/></g>
<g><path style="opacity:0.004" fill="#000000" d="M 107.5,14.5 C 107.897,13.475 108.563,13.3083 109.5,14C 108.906,14.4643 108.239,14.631 107.5,14.5 Z"/></g>
<g><path style="opacity:0.02" fill="#5d5d5d" d="M 353.5,15.5 C 355.027,15.427 356.027,16.0937 356.5,17.5C 354.821,17.7148 353.821,17.0481 353.5,15.5 Z"/></g>
<g><path style="opacity:0.035" fill="#6b6b6b" d="M 379.5,27.5 C 381.027,27.427 382.027,28.0937 382.5,29.5C 380.821,29.7148 379.821,29.0481 379.5,27.5 Z"/></g>
<g><path style="opacity:0.004" fill="#000000" d="M 473.5,28.5 C 474.833,29.1667 474.833,29.1667 473.5,28.5 Z"/></g>
<g><path style="opacity:0.004" fill="#000000" d="M 427.5,31.5 C 428.833,32.1667 428.833,32.1667 427.5,31.5 Z"/></g>
<g><path style="opacity:0.059" fill="#505050" d="M 399.5,38.5 C 400.833,39.1667 401.833,40.1667 402.5,41.5C 401.5,41.5 400.5,41.5 399.5,41.5C 399.5,40.5 399.5,39.5 399.5,38.5 Z"/></g>
<g><path style="opacity:0.004" fill="#000000" d="M 511.5,53.5 C 512.833,54.1667 512.833,54.1667 511.5,53.5 Z"/></g>
<g><path style="opacity:0.02" fill="#545454" d="M 418.5,52.5 C 419.833,53.1667 420.833,54.1667 421.5,55.5C 419.5,55.5 418.5,54.5 418.5,52.5 Z"/></g>
<g><path style="opacity:0.004" fill="#000000" d="M 80.5,61.5 C 81.8333,62.1667 81.8333,62.1667 80.5,61.5 Z"/></g>
<g><path style="opacity:0.016" fill="#707070" d="M 428.5,61.5 C 429.833,61.5 430.5,62.1667 430.5,63.5C 430.5,62.1667 429.833,61.5 428.5,61.5 Z"/></g>
<g><path style="opacity:0.271" fill="#d2d2d2" d="M 107.5,52.5 C 102.181,59.4638 96.1813,65.7972 89.5,71.5C 88.3112,72.4287 86.9778,72.762 85.5,72.5C 87.2324,69.9181 89.2324,67.4181 91.5,65C 96.6499,60.5925 101.983,56.4259 107.5,52.5 Z"/></g>
<g><path style="opacity:0.086" fill="#565656" d="M 430.5,63.5 C 432.404,63.7376 433.738,64.7376 434.5,66.5C 432.381,66.5323 431.048,65.5323 430.5,63.5 Z"/></g>
<g><path style="opacity:0.373" fill="#888888" d="M 435.5,67.5 C 437.134,68.5812 438.467,69.9145 439.5,71.5C 438.167,71.5 436.833,71.5 435.5,71.5C 435.5,70.1667 435.5,68.8333 435.5,67.5 Z"/></g>
<g><path style="opacity:0.005" fill="#000000" d="M 266.5,76.5 C 267.833,76.5 268.5,77.1667 268.5,78.5C 267.5,78.1667 266.833,77.5 266.5,76.5 Z"/></g>
<g><path style="opacity:0.22" fill="#8a8a8a" d="M 76.5,81.5 C 76.1667,84.5 74.5,86.1667 71.5,86.5C 72.8818,84.4514 74.5484,82.7847 76.5,81.5 Z"/></g>
<g><path style="opacity:0.031" fill="#737373" d="M 68.5,90.5 C 66.8136,93.5037 64.8136,96.1703 62.5,98.5C 63.3128,95.0105 65.3128,92.3438 68.5,90.5 Z"/></g>
<g><path style="opacity:0.02" fill="#676767" d="M 462.5,98.5 C 463.833,98.5 464.5,99.1667 464.5,100.5C 464.5,99.1667 463.833,98.5 462.5,98.5 Z"/></g>
<g><path style="opacity:0.004" fill="#000000" d="M 492.5,103.5 C 492.897,102.475 493.563,102.308 494.5,103C 493.906,103.464 493.239,103.631 492.5,103.5 Z"/></g>
<g><path style="opacity:0.055" fill="#9b9b9b" d="M 240.5,100.5 C 238.817,101.853 237.484,103.52 236.5,105.5C 234.568,106.584 232.735,107.917 231,109.5C 230.5,109.333 230,109.167 229.5,109C 232.8,105.513 236.467,102.68 240.5,100.5 Z"/></g>
<g><path style="opacity:0.125" fill="#858585" d="M 468.5,106.5 C 471.364,108.023 473.031,110.357 473.5,113.5C 472.624,113.631 471.957,113.298 471.5,112.5C 470.014,110.698 469.014,108.698 468.5,106.5 Z"/></g>
<g><path style="opacity:0.027" fill="#909090" d="M 278.5,115.5 C 275.4,118.21 271.733,119.543 267.5,119.5C 270.785,117.368 274.451,116.035 278.5,115.5 Z"/></g>
<g><path style="opacity:0.004" fill="#000000" d="M 493.5,130.5 C 494.833,131.167 494.833,131.167 493.5,130.5 Z"/></g>
<g><path style="opacity:0.075" fill="#a3a3a3" d="M 231.5,132.5 C 228.794,132.575 226.127,132.908 223.5,133.5C 221.821,133.285 220.821,133.952 220.5,135.5C 219.833,135.5 219.167,135.5 218.5,135.5C 218.5,134.5 218.5,133.5 218.5,132.5C 222.375,132.104 226.208,131.438 230,130.5C 231.03,130.836 231.53,131.503 231.5,132.5 Z"/></g>
<g><path style="opacity:0.009" fill="#000000" d="M 223.5,133.5 C 222.71,134.401 221.71,135.068 220.5,135.5C 220.821,133.952 221.821,133.285 223.5,133.5 Z"/></g>
<g><path style="opacity:0.004" fill="#000000" d="M 31.5,136.5 C 32.8333,137.167 32.8333,137.167 31.5,136.5 Z"/></g>
<g><path style="opacity:0.039" fill="#a0a0a0" d="M 193.5,140.5 C 189.03,141.486 184.363,141.819 179.5,141.5C 181.397,140.195 183.731,139.529 186.5,139.5C 189.025,139.503 191.359,139.837 193.5,140.5 Z"/></g>
<g><path style="opacity:0.012" fill="#434343" d="M 489.5,140.5 C 490.11,141.391 490.443,142.391 490.5,143.5C 488.448,142.947 488.115,141.947 489.5,140.5 Z"/></g>
<g><path style="opacity:0.008" fill="#000000" d="M 264.5,149.5 C 262.5,149.5 260.5,149.5 258.5,149.5C 260.406,147.006 262.406,147.006 264.5,149.5 Z"/></g>
<g><path style="opacity:0.012" fill="#313131" d="M 176.5,147.5 C 177.5,147.833 178.167,148.5 178.5,149.5C 176.007,149.869 175.34,149.203 176.5,147.5 Z"/></g>
<g><path style="opacity:0.035" fill="#2d2d2d" d="M 270.5,147.5 C 271.167,147.5 271.833,147.5 272.5,147.5C 271.833,150.167 271.167,150.167 270.5,147.5 Z"/></g>
<g><path style="opacity:0.043" fill="#444444" d="M 251.5,150.5 C 251.5,151.833 250.833,152.5 249.5,152.5C 249.5,151.167 250.167,150.5 251.5,150.5 Z"/></g>
<g><path style="opacity:0.176" fill="#9f9f9f" d="M 184.5,152.5 C 187.716,152.345 190.383,153.345 192.5,155.5C 189.083,155.977 186.416,154.977 184.5,152.5 Z"/></g>
<g><path style="opacity:0.027" fill="#444444" d="M 304.5,153.5 C 305.609,153.557 306.609,153.89 307.5,154.5C 307.5,154.833 307.5,155.167 307.5,155.5C 305.973,155.573 304.973,154.906 304.5,153.5 Z"/></g>
<g><path style="opacity:0.118" fill="#949494" d="M 245.5,152.5 C 244.216,154.614 242.216,155.614 239.5,155.5C 240.911,153.461 242.911,152.461 245.5,152.5 Z"/></g>
<g><path style="opacity:0.051" fill="#737373" d="M 312.5,156.5 C 314.144,156.81 315.144,157.81 315.5,159.5C 313.5,159.5 312.5,158.5 312.5,156.5 Z"/></g>
<g><path style="opacity:0.024" fill="#515151" d="M 217.5,156.5 C 219.607,155.532 221.941,155.198 224.5,155.5C 224.5,157.5 224.5,159.5 224.5,161.5C 223.5,161.5 222.5,161.5 221.5,161.5C 224.348,157.308 223.014,155.642 217.5,156.5 Z"/></g>
<g><path style="opacity:0.159" fill="#cacaca" d="M 307.5,154.5 C 306.609,153.89 305.609,153.557 304.5,153.5C 302.053,152.775 299.553,152.108 297,151.5C 291.502,152.653 286.669,155.153 282.5,159C 284.765,160.118 287.099,160.951 289.5,161.5C 288.381,165.571 286.714,169.238 284.5,172.5C 284.935,169.404 285.435,166.404 286,163.5C 281.66,163.055 277.493,162.055 273.5,160.5C 275.5,159.833 277.5,159.167 279.5,158.5C 283.045,155.783 286.711,153.283 290.5,151C 296.426,149.89 302.092,150.556 307.5,153C 308.738,153.69 308.738,154.19 307.5,154.5 Z"/></g>
<g><path style="opacity:0.027" fill="#151515" d="M 228.5,162.5 C 228.5,163.833 227.833,164.5 226.5,164.5C 226.833,163.5 227.5,162.833 228.5,162.5 Z"/></g>
<g><path style="opacity:0.094" fill="#606060" d="M 498.5,162.5 C 499.492,164.456 500.492,166.456 501.5,168.5C 499.031,167.393 498.031,165.393 498.5,162.5 Z"/></g>
<g><path style="opacity:0.027" fill="#1f1f1f" d="M 22.5,171.5 C 22.6602,173.199 22.4935,174.866 22,176.5C 21.6174,175.944 21.1174,175.611 20.5,175.5C 20.9887,174.005 21.6554,172.671 22.5,171.5 Z"/></g>
<g><path style="opacity:0.02" fill="#505050" d="M 283.5,174.5 C 283.672,175.492 283.338,176.158 282.5,176.5C 281.243,175.377 281.576,174.711 283.5,174.5 Z"/></g>
<g><path style="opacity:0.106" fill="#b7b7b7" d="M 240.5,180.5 C 240.5,180.167 240.5,179.833 240.5,179.5C 240.265,178.903 239.765,178.57 239,178.5C 236.41,180.273 233.577,181.273 230.5,181.5C 233.811,177.683 238.144,175.683 243.5,175.5C 245.9,172.64 248.9,171.473 252.5,172C 248.276,174.604 244.276,177.437 240.5,180.5 Z"/></g>
<g><path style="opacity:0.194" fill="#727272" d="M 220.5,177.5 C 220.5,179.833 220.5,182.167 220.5,184.5C 221.791,184.263 222.791,184.596 223.5,185.5C 221.833,185.5 220.167,185.5 218.5,185.5C 218.337,183.143 218.503,180.81 219,178.5C 219.383,177.944 219.883,177.611 220.5,177.5 Z"/></g>
<g><path style="opacity:0.027" fill="#676767" d="M 240.5,179.5 C 240.5,179.833 240.5,180.167 240.5,180.5C 239.478,182.855 237.812,184.522 235.5,185.5C 236.419,182.911 238.086,180.911 240.5,179.5 Z"/></g>
<g><path style="opacity:0.114" fill="#b5b5b5" d="M 220.5,173.5 C 221.693,173.97 222.36,174.97 222.5,176.5C 221.828,178.832 221.661,181.166 222,183.5C 223.699,182.594 225.533,182.261 227.5,182.5C 226.789,184.201 225.455,185.201 223.5,185.5C 222.791,184.596 221.791,184.263 220.5,184.5C 220.5,182.167 220.5,179.833 220.5,177.5C 220.5,176.167 220.5,174.833 220.5,173.5 Z"/></g>
<g><path style="opacity:0.024" fill="#a6a6a6" d="M 278.5,180.5 C 277.243,183.427 275.243,185.761 272.5,187.5C 272.728,183.607 274.728,181.274 278.5,180.5 Z"/></g>
<g><path style="opacity:0.047" fill="#8c8c8c" d="M 234.5,187.5 C 233.833,190.167 232.167,191.833 229.5,192.5C 230.833,190.5 232.5,188.833 234.5,187.5 Z"/></g>
<g><path style="opacity:0.026" fill="#878787" d="M 303.5,193.5 C 303.5,194.833 303.5,196.167 303.5,197.5C 301.654,197.222 300.32,197.889 299.5,199.5C 300.947,200.935 302.614,201.935 304.5,202.5C 299.069,203.906 296.735,201.906 297.5,196.5C 299.947,196.385 301.947,195.385 303.5,193.5 Z"/></g>
<g><path style="opacity:0.071" fill="#6a6a6a" d="M 357.5,199.5 C 365.65,198.507 373.983,198.174 382.5,198.5C 376.099,199.184 369.599,199.85 363,200.5C 361.301,199.594 359.467,199.261 357.5,199.5 Z"/></g>
<g><path style="opacity:0.059" fill="#8c8c8c" d="M 16.5,196.5 C 16.9227,198.781 16.256,200.448 14.5,201.5C 14.1201,199.302 14.7868,197.635 16.5,196.5 Z"/></g>
<g><path style="opacity:0.024" fill="#5d5d5d" d="M 317.5,200.5 C 315.393,201.468 313.059,201.802 310.5,201.5C 311.152,200.275 312.319,199.608 314,199.5C 315.385,199.514 316.551,199.848 317.5,200.5 Z"/></g>
<g><path style="opacity:0.047" fill="#4c4c4c" d="M 256.5,201.5 C 255.205,202.488 253.872,203.488 252.5,204.5C 252.694,202.088 254.027,201.088 256.5,201.5 Z"/></g>
<g><path style="opacity:0.047" fill="#4b4b4b" d="M 239.5,211.5 C 238.817,213.176 237.483,213.843 235.5,213.5C 236.183,211.824 237.517,211.157 239.5,211.5 Z"/></g>
<g><path style="opacity:0.078" fill="#535353" d="M 235.5,213.5 C 232.456,215.011 229.122,215.678 225.5,215.5C 228.337,213.598 231.671,212.931 235.5,213.5 Z"/></g>
<g><path style="opacity:0.098" fill="#646464" d="M 217.5,210.5 C 217.5,211.833 217.5,213.167 217.5,214.5C 220.082,214.025 222.082,214.692 223.5,216.5C 221.061,217.053 218.727,217.053 216.5,216.5C 215.243,214.201 215.577,212.201 217.5,210.5 Z"/></g>
<g><path style="opacity:0.007" fill="#181818" d="M 340.5,216.5 C 341.833,216.5 342.5,217.167 342.5,218.5C 341.167,218.5 340.5,217.833 340.5,216.5 Z"/></g>
<g><path style="opacity:0.043" fill="#767676" d="M 12.5,214.5 C 13.1471,215.274 13.4805,216.274 13.5,217.5C 13.3601,219.03 12.6935,220.03 11.5,220.5C 11.2053,218.265 11.5386,216.265 12.5,214.5 Z"/></g>
<g><path style="opacity:0.254" fill="#e8e8e8" d="M 287.5,219.5 C 286.833,219.833 286.167,220.167 285.5,220.5C 283.708,219.691 281.708,219.191 279.5,219C 278.748,218.329 278.414,217.496 278.5,216.5C 281.113,215.565 283.779,215.398 286.5,216C 287.337,217.011 287.67,218.178 287.5,219.5 Z"/></g>
<g><path style="opacity:0.024" fill="#2f2f2f" d="M 263.5,219.5 C 264.793,218.842 266.293,218.508 268,218.5C 269.986,218.569 271.486,219.235 272.5,220.5C 269.57,219.701 266.57,219.368 263.5,219.5 Z"/></g>
<g><path style="opacity:0.016" fill="#333333" d="M 287.5,219.5 C 288.5,219.5 289.5,219.5 290.5,219.5C 289.448,221.256 287.781,221.923 285.5,221.5C 285.5,221.167 285.5,220.833 285.5,220.5C 286.167,220.167 286.833,219.833 287.5,219.5 Z"/></g>
<g><path style="opacity:0.024" fill="#9e9e9e" d="M 278.5,216.5 C 278.414,217.496 278.748,218.329 279.5,219C 281.708,219.191 283.708,219.691 285.5,220.5C 285.5,220.833 285.5,221.167 285.5,221.5C 285.631,222.376 285.298,223.043 284.5,223.5C 283.672,222.585 282.672,221.919 281.5,221.5C 277.2,221.95 273.033,222.95 269,224.5C 266.473,224.33 265.973,223.33 267.5,221.5C 266.311,220.571 264.978,220.238 263.5,220.5C 263.5,220.167 263.5,219.833 263.5,219.5C 266.57,219.368 269.57,219.701 272.5,220.5C 273.919,221.451 275.585,221.784 277.5,221.5C 277.216,219.585 277.549,217.919 278.5,216.5 Z"/></g>
<g><path style="opacity:0.067" fill="#686868" d="M 263.5,220.5 C 263.5,221.5 263.5,222.5 263.5,223.5C 263.38,224.586 262.713,225.253 261.5,225.5C 259.109,224.809 259.109,223.809 261.5,222.5C 260.311,221.571 258.978,221.238 257.5,221.5C 259.099,219.271 261.099,218.938 263.5,220.5 Z"/></g>
<g><path style="opacity:0.004" fill="#393939" d="M 364.5,224.5 C 366.619,224.468 367.952,225.468 368.5,227.5C 367.153,226.829 365.986,226.829 365,227.5C 364.517,226.552 364.351,225.552 364.5,224.5 Z"/></g>
<g><path style="opacity:0.055" fill="#767676" d="M 510.5,208.5 C 512.375,213.89 513.375,219.556 513.5,225.5C 512.307,225.03 511.64,224.03 511.5,222.5C 510.685,217.868 510.352,213.201 510.5,208.5 Z"/></g>
<g><path style="opacity:0.063" fill="#636363" d="M 183.5,225.5 C 182.365,227.213 180.698,227.88 178.5,227.5C 179.552,225.744 181.219,225.077 183.5,225.5 Z"/></g>
<g><path style="opacity:0.055" fill="#999999" d="M 252.5,227.5 C 251.29,227.932 250.29,228.599 249.5,229.5C 248.209,229.737 247.209,229.404 246.5,228.5C 247.73,226.02 249.23,223.686 251,221.5C 253.479,223.088 253.979,225.088 252.5,227.5 Z"/></g>
<g><path style="opacity:0.412" fill="#d0d0d0" d="M 257.5,221.5 C 258.978,221.238 260.311,221.571 261.5,222.5C 259.109,223.809 259.109,224.809 261.5,225.5C 262.713,225.253 263.38,224.586 263.5,223.5C 264.167,223.5 264.5,223.167 264.5,222.5C 265.096,223.935 265.096,225.602 264.5,227.5C 259.606,228.811 254.606,229.477 249.5,229.5C 250.29,228.599 251.29,227.932 252.5,227.5C 254.441,225.705 256.107,223.705 257.5,221.5 Z"/></g>
<g><path style="opacity:0.406" fill="#d9d9d9" d="M 364.5,224.5 C 364.351,225.552 364.517,226.552 365,227.5C 365.986,226.829 367.153,226.829 368.5,227.5C 371.167,227.5 373.833,227.5 376.5,227.5C 376.461,228.583 376.127,229.583 375.5,230.5C 372.789,231.039 370.623,232.372 369,234.5C 367.352,233.283 365.519,232.45 363.5,232C 366.051,230.484 365.718,229.651 362.5,229.5C 362.5,230.5 362.5,231.5 362.5,232.5C 358.456,231.666 354.456,231.333 350.5,231.5C 352.882,229.929 355.549,229.096 358.5,229C 356.685,228.243 355.019,227.41 353.5,226.5C 356.961,224.909 360.628,224.242 364.5,224.5 Z"/></g>
<g><path style="opacity:0.125" fill="#aeaeae" d="M 234.5,228.5 C 232.427,232.1 230.093,232.267 227.5,229C 228.056,228.617 228.389,228.117 228.5,227.5C 228.962,226.12 229.962,225.453 231.5,225.5C 233.516,225.516 234.516,226.516 234.5,228.5 Z"/></g>
<g><path style="opacity:0.09" fill="#b4b4b4" d="M 336.5,224.5 C 336.5,225.167 336.167,225.5 335.5,225.5C 334.215,226.785 332.881,228.119 331.5,229.5C 330.264,228.754 328.93,228.421 327.5,228.5C 327.649,229.552 327.483,230.552 327,231.5C 325.491,230.91 323.991,230.244 322.5,229.5C 326.616,226.341 331.283,224.674 336.5,224.5 Z"/></g>
<g><path style="opacity:0.322" fill="#a5a5a5" d="M 399.5,230.5 C 402.469,231.466 404.802,233.133 406.5,235.5C 402.684,235.737 400.351,234.071 399.5,230.5 Z"/></g>
<g><path style="opacity:0.008" fill="#727272" d="M 10.5,234.5 C 10.5,239.5 10.5,244.5 10.5,249.5C 9.83333,247.833 9.16667,246.167 8.5,244.5C 8.54877,240.922 9.21543,237.589 10.5,234.5 Z"/></g>
<g><path style="opacity:0.024" fill="#565656" d="M 119.5,243.5 C 118.292,244.234 116.959,244.567 115.5,244.5C 115.62,243.414 116.287,242.747 117.5,242.5C 118.416,242.543 119.083,242.876 119.5,243.5 Z"/></g>
<g><path style="opacity:0.059" fill="#424242" d="M 514.5,229.5 C 515.005,236.652 515.339,243.819 515.5,251C 515.65,258.723 514.983,266.223 513.5,273.5C 513.171,258.657 513.504,243.99 514.5,229.5 Z"/></g>
<g><path style="opacity:0.012" fill="#404040" d="M 8.5,244.5 C 9.16667,246.167 9.83333,247.833 10.5,249.5C 10.5,254.5 10.5,259.5 10.5,264.5C 9.73209,263.737 9.23209,262.737 9,261.5C 8.50058,255.843 8.33391,250.176 8.5,244.5 Z"/></g>
<g><path style="opacity:0.02" fill="#636363" d="M 283.5,254.5 C 282.713,256.104 281.38,256.771 279.5,256.5C 280.183,254.824 281.517,254.157 283.5,254.5 Z"/></g>
<g><path style="opacity:0.016" fill="#3e3e3e" d="M 313.5,257.5 C 314.833,257.5 315.5,258.167 315.5,259.5C 314.5,259.167 313.833,258.5 313.5,257.5 Z"/></g>
<g><path style="opacity:0.46" fill="#c7c7c7" d="M 215.5,273.5 C 216.693,273.03 217.36,272.03 217.5,270.5C 217.48,269.274 217.147,268.274 216.5,267.5C 215.833,267.5 215.5,267.833 215.5,268.5C 214.167,269.5 212.833,270.5 211.5,271.5C 210.957,271.44 210.624,271.107 210.5,270.5C 212.94,268.891 214.107,266.557 214,263.5C 216.198,265.375 218.031,265.375 219.5,263.5C 219.833,263.667 220.167,263.833 220.5,264C 219.029,267.321 218.363,270.821 218.5,274.5C 217.209,274.737 216.209,274.404 215.5,273.5 Z"/></g>
<g><path style="opacity:0.098" fill="#484848" d="M 216.5,267.5 C 217.147,268.274 217.48,269.274 217.5,270.5C 217.36,272.03 216.693,273.03 215.5,273.5C 215.5,271.833 215.5,270.167 215.5,268.5C 216.167,268.5 216.5,268.167 216.5,267.5 Z"/></g>
<g><path style="opacity:0.124" fill="#777777" d="M 513.5,275.5 C 513.802,278.059 513.468,280.393 512.5,282.5C 511.848,281.551 511.514,280.385 511.5,279C 511.608,277.319 512.275,276.152 513.5,275.5 Z"/></g>
<g><path style="opacity:0.571" fill="#c6c6c6" d="M 260.5,276.5 C 260.191,279.346 258.525,280.846 255.5,281C 256.451,281.718 256.617,282.551 256,283.5C 250.251,283.499 244.418,283.332 238.5,283C 235.075,284.249 231.742,285.749 228.5,287.5C 228.167,287.333 227.833,287.167 227.5,287C 228.966,285.448 229.966,283.614 230.5,281.5C 231.325,280.614 232.325,280.281 233.5,280.5C 242.853,282.204 251.853,280.871 260.5,276.5 Z"/></g>
<g><path style="opacity:0.02" fill="#5a5a5a" d="M 11.5,278.5 C 13.4136,281.684 14.0803,285.351 13.5,289.5C 11.783,286.155 11.1164,282.489 11.5,278.5 Z"/></g>
<g><path style="opacity:0.095" fill="#929292" d="M 510.5,293.5 C 511.055,297.012 510.388,300.012 508.5,302.5C 507.945,298.988 508.612,295.988 510.5,293.5 Z"/></g>
<g><path style="opacity:0.093" fill="#acacac" d="M 222.5,291.5 C 223.5,291.5 224.5,291.5 225.5,291.5C 223.329,294.339 221.996,297.673 221.5,301.5C 220.5,301 219.5,300.5 218.5,300C 221.069,297.812 222.403,294.979 222.5,291.5 Z"/></g>
<g><path style="opacity:0.06" fill="#afafaf" d="M 263.5,305.5 C 268.673,305.09 273.673,305.757 278.5,307.5C 279.55,308.429 279.55,309.095 278.5,309.5C 273.222,308.418 268.222,307.085 263.5,305.5 Z"/></g>
<g><path style="opacity:0.604" fill="#bdbdbd" d="M 253.5,308.5 C 249.145,311.068 244.478,313.068 239.5,314.5C 240.502,312.989 241.169,311.322 241.5,309.5C 245.519,309.354 249.519,309.021 253.5,308.5 Z"/></g>
<g><path style="opacity:0.102" fill="#6b6b6b" d="M 214.5,318.5 C 215.181,314.078 216.181,309.744 217.5,305.5C 218.315,304.571 219.148,303.571 220,302.5C 220.167,303.167 220.333,303.833 220.5,304.5C 218.437,308.563 217.103,312.896 216.5,317.5C 215.817,317.863 215.15,318.196 214.5,318.5 Z"/></g>
<g><path style="opacity:0.075" fill="#c8c8c8" d="M 195.5,303.5 C 195.163,308.357 193.83,312.857 191.5,317C 191.957,317.414 192.291,317.914 192.5,318.5C 191.811,320.444 191.311,322.444 191,324.5C 190.617,325.056 190.117,325.389 189.5,325.5C 189.924,319.776 190.757,314.11 192,308.5C 192.737,306.404 193.903,304.737 195.5,303.5 Z"/></g>
<g><path style="opacity:0.012" fill="#363636" d="M 238.5,314.5 C 238.027,315.906 237.027,316.573 235.5,316.5C 235.821,314.952 236.821,314.285 238.5,314.5 Z"/></g>
<g><path style="opacity:0.475" fill="#a1a1a1" d="M 227.5,318.5 C 224.877,320.265 221.877,320.932 218.5,320.5C 218.5,321.833 218.5,323.167 218.5,324.5C 217.833,324.5 217.167,324.5 216.5,324.5C 213.674,323.113 213.007,321.113 214.5,318.5C 214.782,323.579 215.782,323.746 217.5,319C 220.372,318.685 223.205,318.185 226,317.5C 226.765,317.57 227.265,317.903 227.5,318.5 Z"/></g>
<g><path style="opacity:0.027" fill="#424242" d="M 20.5,324.5 C 22.256,325.552 22.9227,327.219 22.5,329.5C 21.0687,328.22 20.4021,326.553 20.5,324.5 Z"/></g>
<g><path style="opacity:0.086" fill="#5a5a5a" d="M 338.5,327.5 C 338.5,326.5 338.5,325.5 338.5,324.5C 339.472,323.249 340.139,323.582 340.5,325.5C 340.253,326.713 339.586,327.38 338.5,327.5 Z"/></g>
<g><path style="opacity:0.035" fill="#474747" d="M 221.5,327.5 C 223.887,327.912 225.887,328.912 227.5,330.5C 225.5,330.5 223.5,330.5 221.5,330.5C 221.5,329.5 221.5,328.5 221.5,327.5 Z"/></g>
<g><path style="opacity:0.007" fill="#161616" d="M 247.5,330.5 C 245.833,330.5 244.167,330.5 242.5,330.5C 244.296,327.952 245.962,327.952 247.5,330.5 Z"/></g>
<g><path style="opacity:0.027" fill="#9d9d9d" d="M 302.5,323.5 C 303.403,326.391 303.736,329.391 303.5,332.5C 302.883,332.611 302.383,332.944 302,333.5C 301.192,329.973 301.359,326.64 302.5,323.5 Z"/></g>
<g><path style="opacity:0.098" fill="#8e8e8e" d="M 242.5,330.5 C 241.986,332.439 240.653,333.439 238.5,333.5C 237.287,333.253 236.62,332.586 236.5,331.5C 238.5,331.167 240.5,330.833 242.5,330.5 Z"/></g>
<g><path style="opacity:0.043" fill="#424242" d="M 22.5,332.5 C 24.7409,333.3 25.7409,334.966 25.5,337.5C 24.2632,336.035 23.2632,334.368 22.5,332.5 Z"/></g>
<g><path style="opacity:0.157" fill="#969696" d="M 501.5,333.5 C 500.833,335.167 500.167,336.833 499.5,338.5C 498.522,338.189 497.855,337.522 497.5,336.5C 498.588,335.066 499.922,334.066 501.5,333.5 Z"/></g>
<g><path style="opacity:0.186" fill="#757575" d="M 25.5,337.5 C 27.256,338.552 27.9227,340.219 27.5,342.5C 25.7868,341.365 25.1201,339.698 25.5,337.5 Z"/></g>
<g><path style="opacity:0.141" fill="#a6a6a6" d="M 253.5,344.5 C 252.167,343.833 250.833,343.167 249.5,342.5C 249.5,341.5 249.5,340.5 249.5,339.5C 251.167,339.5 252.833,339.5 254.5,339.5C 254.634,341.292 254.301,342.958 253.5,344.5 Z"/></g>
<g><path style="opacity:0.047" fill="#676767" d="M 259.5,341.5 C 260.55,341.905 260.55,342.571 259.5,343.5C 258.423,344.705 257.09,345.372 255.5,345.5C 256.5,343.833 257.833,342.5 259.5,341.5 Z"/></g>
<g><path style="opacity:0.094" fill="#505050" d="M 242.5,345.5 C 242.833,345.5 243.167,345.5 243.5,345.5C 244.5,345.5 245.5,345.5 246.5,345.5C 244.723,347.08 242.89,348.746 241,350.5C 240.235,348.934 240.402,347.601 241.5,346.5C 242.206,347.557 242.539,347.224 242.5,345.5 Z"/></g>
<g><path style="opacity:0.016" fill="#3d3d3d" d="M 337.5,337.5 C 338.15,337.804 338.817,338.137 339.5,338.5C 339.833,341.333 340.167,344.167 340.5,347C 340.481,350.252 339.814,353.085 338.5,355.5C 338.746,349.441 338.413,343.441 337.5,337.5 Z"/></g>
<g><path style="opacity:0.008" fill="#5d5d5d" d="M 253.5,345.5 C 254.167,345.5 254.833,345.5 255.5,345.5C 253.133,348.982 250.133,351.482 246.5,353C 248.326,350.008 250.659,347.508 253.5,345.5 Z"/></g>
<g><path style="opacity:0.059" fill="#999999" d="M 34.5,360.5 C 38.4587,362.073 40.1253,365.073 39.5,369.5C 37.6545,366.662 35.9879,363.662 34.5,360.5 Z"/></g>
<g><path style="opacity:0.016" fill="#323232" d="M 490.5,358.5 C 490.771,360.38 490.104,361.713 488.5,362.5C 488.157,360.517 488.824,359.183 490.5,358.5 Z"/></g>
<g><path style="opacity:0.09" fill="#7f7f7f" d="M 282.5,369.5 C 284.288,368.378 286.288,368.211 288.5,369C 290.744,369.05 292.411,369.883 293.5,371.5C 289.833,370.833 286.167,370.167 282.5,369.5 Z"/></g>
<g><path style="opacity:0.035" fill="#555555" d="M 42.5,376.5 C 44.5,376.5 45.5,377.5 45.5,379.5C 44.1667,378.833 43.1667,377.833 42.5,376.5 Z"/></g>
<g><path style="opacity:0.004" fill="#111111" d="M 481.5,377.5 C 481.167,378.5 480.5,379.167 479.5,379.5C 479.5,378.167 480.167,377.5 481.5,377.5 Z"/></g>
<g><path style="opacity:0.007" fill="#000000" d="M 212.5,378.5 C 214.048,378.821 214.715,379.821 214.5,381.5C 213.599,380.71 212.932,379.71 212.5,378.5 Z"/></g>
<g><path style="opacity:0.02" fill="#bebebe" d="M 253.5,376.5 C 248.129,378.878 242.462,379.878 236.5,379.5C 241.639,377.451 247.139,375.784 253,374.5C 254.684,374.683 254.85,375.35 253.5,376.5 Z"/></g>
<g><path style="opacity:0.012" fill="#505050" d="M 227.5,379.5 C 225.544,380.478 223.544,381.478 221.5,382.5C 221.5,381.5 221.5,380.5 221.5,379.5C 223.5,379.5 225.5,379.5 227.5,379.5 Z"/></g>
<g><path style="opacity:0.165" fill="#8c8c8c" d="M 192.5,380.5 C 194.525,382.196 196.525,383.863 198.5,385.5C 194.968,385.632 192.968,383.966 192.5,380.5 Z"/></g>
<g><path style="opacity:0.047" fill="#3f3f3f" d="M 209.5,385.5 C 210.043,385.56 210.376,385.893 210.5,386.5C 209.675,387.386 208.675,387.719 207.5,387.5C 206.833,387.5 206.167,387.5 205.5,387.5C 206.183,385.824 207.517,385.157 209.5,385.5 Z"/></g>
<g><path style="opacity:0.004" fill="#0e0e0e" d="M 473.5,386.5 C 474.167,386.5 474.833,386.5 475.5,386.5C 475.167,387.5 474.5,388.167 473.5,388.5C 473.5,387.833 473.5,387.167 473.5,386.5 Z"/></g>
<g><path style="opacity:0.035" fill="#9a9a9a" d="M 198.5,385.5 C 200.479,387.168 202.812,387.834 205.5,387.5C 206.167,387.5 206.833,387.5 207.5,387.5C 206.548,388.452 205.548,389.452 204.5,390.5C 203.251,388.525 201.751,388.191 200,389.5C 199.209,388.255 198.709,386.922 198.5,385.5 Z"/></g>
<g><path style="opacity:0.063" fill="#868686" d="M 473.5,386.5 C 473.5,387.167 473.5,387.833 473.5,388.5C 473.346,390.97 472.346,392.97 470.5,394.5C 470.518,391.264 471.518,388.597 473.5,386.5 Z"/></g>
<g><path style="opacity:0.111" fill="#c8c8c8" d="M 295.5,398.5 C 293.167,398.5 290.833,398.5 288.5,398.5C 288.694,394.738 286.86,393.071 283,393.5C 276.178,396.121 269.344,396.788 262.5,395.5C 269.506,394.498 276.506,393.164 283.5,391.5C 285.167,391.667 286.833,391.833 288.5,392C 290.104,395.104 292.437,397.271 295.5,398.5 Z"/></g>
<g><path style="opacity:0.008" fill="#111111" d="M 235.5,397.5 C 238.167,397.5 240.833,397.5 243.5,397.5C 242.666,398.748 241.333,399.415 239.5,399.5C 237.667,399.415 236.334,398.748 235.5,397.5 Z"/></g>
<g><path style="opacity:0.043" fill="#303030" d="M 307.5,411.5 C 309.027,411.427 310.027,412.094 310.5,413.5C 308.821,413.715 307.821,413.048 307.5,411.5 Z"/></g>
<g><path style="opacity:0.133" fill="#8e8e8e" d="M 317.5,410.5 C 316.952,413.084 315.285,414.084 312.5,413.5C 313.659,411.75 315.326,410.75 317.5,410.5 Z"/></g>
<g><path style="opacity:0.004" fill="#141414" d="M 447.5,423.5 C 447.167,424.5 446.5,425.167 445.5,425.5C 445.5,424.167 446.167,423.5 447.5,423.5 Z"/></g>
<g><path style="opacity:0.004" fill="#141414" d="M 444.5,426.5 C 444.167,427.5 443.5,428.167 442.5,428.5C 442.5,427.167 443.167,426.5 444.5,426.5 Z"/></g>
<g><path style="opacity:0.004" fill="#000000" d="M 494.5,433.5 C 495.525,433.897 495.692,434.563 495,435.5C 494.536,434.906 494.369,434.239 494.5,433.5 Z"/></g>
<g><path style="opacity:0.004" fill="#000000" d="M 473.5,438.5 C 474.833,439.167 474.833,439.167 473.5,438.5 Z"/></g>
<g><path style="opacity:0.021" fill="#6a6a6a" d="M 103.5,446.5 C 105.048,446.821 105.715,447.821 105.5,449.5C 104.094,449.027 103.427,448.027 103.5,446.5 Z"/></g>
<g><path style="opacity:0.024" fill="#818181" d="M 107.5,449.5 C 108.5,449.5 109.5,449.5 110.5,449.5C 110.5,450.5 110.5,451.5 110.5,452.5C 108.5,452.5 107.5,451.5 107.5,449.5 Z"/></g>
<g><path style="opacity:0.035" fill="#6e6e6e" d="M 416.5,451.5 C 415.833,452.167 415.167,452.833 414.5,453.5C 413.957,453.44 413.624,453.107 413.5,452.5C 414.325,451.614 415.325,451.281 416.5,451.5 Z"/></g>
<g><path style="opacity:0.004" fill="#000000" d="M 476.5,458.5 C 477.833,459.167 477.833,459.167 476.5,458.5 Z"/></g>
<g><path style="opacity:0.102" fill="#696969" d="M 403.5,460.5 C 402.564,461.974 401.23,462.974 399.5,463.5C 399.5,462.5 399.5,461.5 399.5,460.5C 400.833,460.5 402.167,460.5 403.5,460.5 Z"/></g>
<g><path style="opacity:0.004" fill="#000000" d="M 44.5,476.5 C 44.8966,475.475 45.5632,475.308 46.5,476C 45.9056,476.464 45.2389,476.631 44.5,476.5 Z"/></g>
<g><path style="opacity:0.02" fill="#8b8b8b" d="M 144.5,474.5 C 147.393,474.031 149.393,475.031 150.5,477.5C 148.456,476.492 146.456,475.492 144.5,474.5 Z"/></g>
<g><path style="opacity:0.004" fill="#000000" d="M 408.5,484.5 C 409.833,485.167 409.833,485.167 408.5,484.5 Z"/></g>
<g><path style="opacity:0.006" fill="#3a3a3a" d="M 179.5,489.5 C 180.873,489.343 182.207,489.51 183.5,490C 182.944,490.383 182.611,490.883 182.5,491.5C 180.973,491.573 179.973,490.906 179.5,489.5 Z"/></g>
<g><path style="opacity:0.004" fill="#000000" d="M 35.5,495.5 C 36.8333,496.167 36.8333,496.167 35.5,495.5 Z"/></g>
</svg>
